<svg id="Face" xmlns="http://www.w3.org/2000/svg" viewBox="0 0 595.28 222"><defs><style>.cls-1{fill:#1d1d1b;}.cls-2{fill:#fff;}</style></defs><title>face</title><g id="Left_Eye" data-name="Left Eye"><circle class="cls-1" cx="79.34" cy="74.66" r="31"/><circle class="cls-2" cx="79.34" cy="74.66" r="12.27"/><circle class="cls-2" cx="67.07" cy="83.34" r="7.02"/></g><g id="Right_Eye" data-name="Right Eye"><circle class="cls-1" cx="515.94" cy="74.66" r="31"/><circle class="cls-2" cx="515.94" cy="74.66" r="12.27"/><circle class="cls-2" cx="503.66" cy="83.34" r="7.02"/></g><path id="Mouth" class="cls-1" d="M338,133.66c0,.18,0,.36,0,.54a48.25,48.25,0,0,1-96.49,0c0-.18,0-.36,0-.54a10.53,10.53,0,0,1,21.06,0,27.19,27.19,0,1,0,54.38,0h0a10.53,10.53,0,0,1,21.06,0Z"/></svg>