<svg id="play_btn" viewBox="0 0 404.43 404.43"><title>playbtn</title><circle id="mainCircle" class="black2" cx="202.21" cy="202.21" r="202.21"/><path id="outline" class="green" d="M41,202.21A161,161,0,0,0,42,219.59l-19.81,7.72a183.93,183.93,0,0,1,0-50.19L42,184.84A160.8,160.8,0,0,0,41,202.21Z"/><path id="outline-2" data-name="outline" class="green" d="M161.33,46.25A161.51,161.51,0,0,0,46.25,161.31L27,153.78A182.08,182.08,0,0,1,153.81,27Z"/><path id="outline-3" data-name="outline" class="green" d="M227.25,22.14l-7.71,19.8a163.78,163.78,0,0,0-34.67,0l-7.72-19.8a184.34,184.34,0,0,1,50.1,0Z"/><path id="outline-4" data-name="outline" class="green" d="M376.4,150l-19.27,7.52A161.52,161.52,0,0,0,243.07,46.24l7.52-19.3A182.13,182.13,0,0,1,376.4,150Z"/><path id="outline-5" data-name="outline" class="green" d="M384,202.21a182.74,182.74,0,0,1-2.31,29L362,223.57a163.57,163.57,0,0,0,0-42.71l19.7-7.67A183.8,183.8,0,0,1,384,202.21Z"/><path id="outline-6" data-name="outline" class="green" d="M376.4,254.39A182.21,182.21,0,0,1,255.12,376.18l-7.5-19.27a161.5,161.5,0,0,0,109.51-110Z"/><path id="outline-7" data-name="outline" class="green" d="M232,381.57a184,184,0,0,1-59.61,0l7.67-19.68a163,163,0,0,0,44.27,0Z"/><path id="outline-8" data-name="outline" class="green" d="M156.8,356.91l-7.51,19.27A182.16,182.16,0,0,1,27,250.64l19.3-7.53A161.51,161.51,0,0,0,156.8,356.91Z"/><path id="innerOutline" class="green" d="M221.39,102.14a19.2,19.2,0,0,0-38.34,0,101.4,101.4,0,1,0,38.34,0ZM202.22,298.8a97.08,97.08,0,1,1,97.08-97.08A97.07,97.07,0,0,1,202.22,298.8Z"/><polygon id="Playbutton" class="green" points="163.89 150.66 163.89 252.79 267.37 201.73 163.89 150.66"/></svg>